:SAMPLES-PER-SECOND 30
:FULLY-SPECIFIED
:DEGREES
170
root  -2.249444376 37.25422236 9.712199714 19.77001953 -54.47799683 -11.91400146
lowerback  10.86789989 4.183959961 -8.256739616
upperback  2.695859909 4.345499992 -3.48548007
thorax  -3.594710112 2.143680096 0.3647409976
lowerneck  1.259420037 4.551529884 -12.24940014
upperneck  5.549819946 5.533090115 13.68710041
head  0.6524490118 2.708640099 6.135670185
lclavicle  0 -9.442270133e-015 7.951389973e-016
lhumerus  25.81270027 -42.18980026 78.99949646
lradius  7.936696384e-032 -3.440774992e-031 102.9889984
lwrist  -7.062250077e-031 -5.103579157e-032 29.80739975
lhand  -1.496451383e-031 -27.76390076 20.11240005
lfingers  90 7.125020027 -90
lthumb  89.89689403 5.08795885 91.16245106
rclavicle  0 -9.442270133e-015 7.951389973e-016
rhumerus  -17.9715004 -3.684570074 -57.24140167
rradius  9.999345874e-033 3.52970896e-031 88.37729645
rwrist  1.412450015e-030 3.531125038e-031 -49.62770081
rhand  -7.920061211e-032 -33.2840004 9.303460121
rfingers  -90 -7.125020027 -90
rthumb  -92.93752616 -24.25625642 -97.11982154
rfemur  2.585530043 7.107329845 20.86330032
rtibia  -0 0 51.94100189
rfoot  -4.415517204e-032 -1.547729969 5.451660156
rtoes  5.373923086 19.29304026 -105.8922705
lfemur  -54.32860184 -13.76790047 10.72119999
ltibia  -0 0 47.49959946
lfoot  -0 -4.744289875 -12.79310036
ltoes  -4.250644065 -19.5611806 -102.515957
171
root  -2.33022228 37.35866697 9.697733151 19.29998779 -52.01999664 -10.61199951
lowerback  11.12919998 4.246719837 -7.623010159
upperback  2.815429926 4.477300167 -3.588819981
thorax  -3.566689968 2.202860117 -0.1223530024
lowerneck  2.298530102 4.681000233 -12.62720013
upperneck  5.48718977 5.574739933 14.42140007
head  0.4167470038 2.692059994 6.401410103
lclavicle  0 -9.442270133e-015 7.951389973e-016
lhumerus  22.97120094 -43.83399963 80.06690216
lradius  9.138034159e-032 -3.410836753e-031 104.9980011
lwrist  -1.412450015e-030 -8.827812596e-032 29.13100052
lhand  -1.496451383e-031 -27.76390076 20.11240005
lfingers  90 7.125020027 -90
lthumb  89.89689403 5.08795885 91.16245106
rclavicle  0 -9.442270133e-015 7.951389973e-016
rhumerus  -13.42000008 -6.910069942 -53.44839859
rradius  7.370989666e-033 3.530355632e-031 88.80390167
rwrist  7.062250077e-031 3.531125038e-031 -50.26290131
rhand  -7.920061211e-032 -33.2840004 9.303460121
rfingers  -90 -7.125020027 -90
rthumb  -92.93752616 -24.25625642 -97.11982154
rfemur  1.824229956 5.502130032 21.90870094
rtibia  -0 0 52.48690033
rfoot  -4.420685955e-032 -3.173599958 3.376960039
rtoes  5.373923086 19.29304026 -105.8922705
lfemur  -55.79880142 -13.79780006 9.944939613
ltibia  -0 0 46.85390091
lfoot  -0 -3.13086009 -13.75899982
ltoes  -4.250644065 -19.5611806 -102.515957
172
root  -2.403088817 37.44466586 9.668222563 18.73602295 -49.80900574 -9.331970215
lowerback  11.48670006 4.224370003 -6.819580078
upperback  3.027270079 4.499350071 -3.935830116
thorax  -3.453739882 2.202290058 -0.9426119924
lowerneck  3.253979921 4.851850033 -12.54069996
upperneck  5.316269875 5.703790188 14.95979977
head  0.1714770049 2.723910093 6.525949955
lclavicle  0 -9.442270133e-015 7.951389973e-016
lhumerus  20.28009987 -44.69879913 80.23999786
lradius  1.026682691e-031 -3.378574654e-031 106.9029999
lwrist  -1.412450015e-030 -4.413906298e-032 29.15579987
lhand  -1.496451383e-031 -27.76390076 20.11240005
lfingers  90 7.125020027 -90
lthumb  89.89689403 5.08795885 91.16245106
rclavicle  0 -9.442270133e-015 7.951389973e-016
rhumerus  -8.241370201 -10.93060017 -50.57320023
rradius  1.022786222e-032 3.529643483e-031 88.34020233
rwrist  0 3.531125038e-031 -49.8995018
rhand  -7.920061211e-032 -33.2840004 9.303460121
rfingers  -90 -7.125020027 -90
rthumb  -92.93752616 -24.25625642 -97.11982154
rfemur  1.083709955 4.15489006 22.8076992
rtibia  -0 0 53.13750076
rfoot  -4.42917744e-032 -4.759230137 0.9062539935
rtoes  5.373923086 19.29304026 -105.8922705
lfemur  -56.96960068 -13.74890041 8.898469925
ltibia  -0 0 46.23410034
lfoot  -0 -1.691840053 -14.81309986
ltoes  -4.250644065 -19.5611806 -102.515957
173
root  -2.484266589 37.53133458 9.650222148 17.96801758 -48.0059967 -7.924987793
lowerback  11.7840004 4.214109898 -5.824319839
upperback  3.346270084 4.556210041 -4.635169983
thorax  -3.150599957 2.215820074 -2.234019995
lowerneck  4.087490082 4.986979961 -11.87889957
upperneck  5.151440144 5.827559948 15.20839977
head  -0.02239070088 2.762229919 6.465000153
lclavicle  0 -9.442270133e-015 7.951389973e-016
lhumerus  17.7432003 -45.14960098 79.70500183
lradius  1.123597997e-031 -3.347591908e-031 108.5540009
lwrist  -7.062250077e-031 1.61383449e-031 29.82110023
lhand  -1.496451383e-031 -27.76390076 20.11240005
lfingers  90 7.125020027 -90
lthumb  89.89689403 5.08795885 91.16245106
rclavicle  0 -9.442270133e-015 7.951389973e-016
rhumerus  -2.758519888 -15.29969978 -48.76800156
rradius  1.223905224e-032 3.529003343e-031 88.01370239
rwrist  7.062250077e-031 8.827812596e-031 -50.61339951
rhand  -7.920061211e-032 -33.2840004 9.303460121
rfingers  -90 -7.125020027 -90
rthumb  -92.93752616 -24.25625642 -97.11982154
rfemur  0.3993189931 3.067229986 23.35320091
rtibia  -0 0 53.82849884
rfoot  -6.660473503e-032 -6.252089977 -1.840319991
rtoes  5.373923086 19.29304026 -105.8922705
lfemur  -57.72249985 -13.7251997 7.516119957
ltibia  -0 0 45.64649963
lfoot  -0 0.008247099817 -15.34449959
ltoes  -4.250644065 -19.5611806 -102.515957
174
root  -2.57817779 37.61666666 9.645799952 16.99499512 -46.58399963 -6.512023926
lowerback  12.10999966 4.218060017 -4.524129868
upperback  3.756819963 4.65997982 -5.637209892
thorax  -2.710170031 2.259910107 -4.024419785
lowerneck  4.925789833 5.078169823 -11.01550007
upperneck  4.924520016 5.921750069 15.4946003
head  -0.2256879956 2.785160065 6.381740093
lclavicle  0 -9.442270133e-015 7.951389973e-016
lhumerus  15.41409969 -45.27259827 78.55789948
lradius  1.191775871e-031 -3.323930552e-031 109.7249985
lwrist  -7.062250077e-031 2.869039094e-031 30.92140007
lhand  -1.496451383e-031 -27.76390076 20.11240005
lfingers  90 7.125020027 -90
lthumb  89.89689403 5.08795885 91.16245106
rclavicle  0 -9.442270133e-015 7.951389973e-016
rhumerus  2.970400095 -19.89459991 -47.93980026
rradius  1.704448412e-032 3.527009015e-031 87.23329926
rwrist  1.412450015e-030 7.062250077e-031 -50.75719833
rhand  -7.920061211e-032 -33.2840004 9.303460121
rfingers  -90 -7.125020027 -90
rthumb  -92.93752616 -24.25625642 -97.11982154
rfemur  -0.06169949844 2.400269985 23.69219971
rtibia  -0 0 54.5340004
rfoot  -4.453925658e-032 -7.686470032 -4.649549961
rtoes  5.373923086 19.29304026 -105.8922705
lfemur  -57.97710037 -13.70800018 5.912950039
ltibia  -0 0 45.07699966
lfoot  -0 2.329710007 -15.06599998
ltoes  -4.250644065 -19.5611806 -102.515957
175
root  -2.672733284 37.69533353 9.649466717 15.74597168 -45.45500183 -4.702026367
lowerback  12.46479988 4.394680023 -3.912549973
upperback  4.13161993 4.918109894 -6.417109966
thorax  -2.375449896 2.390049934 -5.239590168
lowerneck  6.015329838 5.037899971 -10.63560009
upperneck  4.409450054 5.844560146 15.88319969
head  -0.5491999984 2.698800087 6.411190033
lclavicle  0 -9.442270133e-015 7.951389973e-016
lhumerus  13.16679955 -44.87720108 77.98179626
lradius  1.223338748e-031 -3.312444165e-031 110.2699966
lwrist  0 3.089734409e-031 31.78549957
lhand  -1.496451383e-031 -27.76390076 20.11240005
lfingers  90 7.125020027 -90
lthumb  89.89689403 5.08795885 91.16245106
rclavicle  0 -9.442270133e-015 7.951389973e-016
rhumerus  8.939970016 -24.25499916 -47.22330093
rradius  2.332958151e-032 3.523409868e-031 86.21179962
rwrist  7.062250077e-031 8.827812596e-031 -50.38650131
rhand  -7.920061211e-032 -33.2840004 9.303460121
rfingers  -90 -7.125020027 -90
rthumb  -92.93752616 -24.25625642 -97.11982154
rfemur  -0.5204250216 2.017990112 23.52090073
rtibia  -0 0 55.26279831
rfoot  -8.94285436e-032 -9.200130463 -7.071370125
rtoes  5.373923086 19.29304026 -105.8922705
lfemur  -58.03340149 -13.69379997 3.89703989
ltibia  -0 0 44.49710083
lfoot  -0 3.959290028 -14.83320045
ltoes  -4.250644065 -19.5611806 -102.515957
176
root  -2.759133361 37.75399876 9.662044705 14.66601563 -44.43299866 -2.593017578
lowerback  12.56779957 4.617380142 -3.65692997
upperback  4.360819817 5.213769913 -7.167069912
thorax  -2.072479963 2.544709921 -6.224569798
lowerneck  6.985439777 4.897729874 -10.06709957
upperneck  3.981060028 5.661439896 16.1182003
head  -0.8016880155 2.564960003 6.372600079
lclavicle  0 -9.442270133e-015 7.951389973e-016
lhumerus  11.19649982 -44.19789886 77.53340149
lradius  1.221546467e-031 -3.313105532e-031 110.2389984
lwrist  -7.062250077e-031 3.531125038e-031 32.47109985
lhand  -1.496451383e-031 -27.76390076 20.11240005
lfingers  90 7.125020027 -90
lthumb  89.89689403 5.08795885 91.16245106
rclavicle  0 -9.442270133e-015 7.951389973e-016
rhumerus  15.29850006 -28.48240089 -47.21179962
rradius  3.191755145e-032 3.516670446e-031 84.81400299
rwrist  1.412450015e-030 7.062250077e-031 -49.56079865
rhand  -7.920061211e-032 -33.2840004 9.303460121
rfingers  -90 -7.125020027 -90
rthumb  -92.93752616 -24.25625642 -97.11982154
rfemur  -1.422410011 1.696210027 22.92700005
rtibia  -0 0 55.99100113
rfoot  -0 -10.57209969 -9.107310295
rtoes  5.373923086 19.29304026 -105.8922705
lfemur  -58.37540054 -13.53820038 1.633440018
ltibia  -0 0 43.9353981
lfoot  -0 4.766300201 -15.1310997
ltoes  -4.250644065 -19.5611806 -102.515957
